<?xml version="1.0" standalone="no"?>
<!DOCTYPE svg PUBLIC "-//W3C//DTD SVG 20010904//EN"
 "http://www.w3.org/TR/2001/REC-SVG-20010904/DTD/svg10.dtd">
<svg version="1.0" xmlns="http://www.w3.org/2000/svg"
 width="1000.000000pt" height="1000.000000pt" viewBox="0 0 1000.000000 1000.000000"
 preserveAspectRatio="xMidYMid meet">

<g transform="translate(0.000000,1000.000000) scale(0.100000,-0.100000)"
fill="#000000" stroke="none">
<path d="M3505 9660 c-4 -6 -14 -9 -22 -6 -9 4 -11 2 -7 -6 5 -8 2 -9 -10 -5
-9 4 -34 0 -54 -9 -20 -9 -45 -17 -54 -19 -20 -4 -273 -104 -340 -135 l-48
-21 -2 -1253 -3 -1253 -457 903 -458 902 0 76 0 77 -62 -48 c-220 -168 -558
-494 -737 -708 -541 -650 -894 -1384 -1055 -2195 -404 -2036 502 -4087 2282
-5162 667 -403 1429 -638 2227 -688 1103 -69 2223 250 3125 890 l120 85 0
1737 0 1737 -457 901 -458 901 -5 -1800 -5 -1799 -233 459 c-205 403 -232 462
-220 477 12 15 11 16 -4 3 -10 -7 -18 -20 -18 -27 0 -8 -5 -14 -11 -14 -5 0
-7 -4 -4 -10 3 -5 1 -10 -6 -10 -6 0 -51 -38 -98 -84 -251 -246 -548 -420
-878 -513 l-93 -27 0 -985 0 -986 -460 907 -460 907 0 79 0 79 -97 28 c-497
141 -934 481 -1201 934 -180 307 -272 651 -272 1021 0 535 199 1029 568 1412
331 342 750 549 1235 609 135 16 460 6 590 -19 l97 -18 0 284 0 284 -457 903
-458 902 -5 -844 -5 -843 -504 992 c-277 546 -507 997 -511 1001 -4 5 -11 4
-15 -3z"/>
</g>
</svg>
